<svg width="18" height="13" viewBox="0 0 18 13" fill="none" xmlns="http://www.w3.org/2000/svg">
<path d="M8.66187 12.9167C6.85951 12.9167 5.32562 12.2895 4.06021 11.0352C2.79465 9.7809 2.16188 8.25528 2.16188 6.45833V5.80771L1.05937 6.91021C0.943958 7.02563 0.798889 7.08465 0.624167 7.08729C0.449583 7.08993 0.301875 7.0309 0.181042 6.91021C0.0603471 6.78951 0 6.64319 0 6.47125C0 6.29917 0.0603471 6.15278 0.181042 6.03208L2.25958 3.95354C2.41028 3.80285 2.58604 3.7275 2.78687 3.7275C2.98771 3.7275 3.16347 3.80285 3.31417 3.95354L5.39271 6.03208C5.50799 6.1475 5.56701 6.2925 5.56979 6.46708C5.57243 6.64181 5.5134 6.78951 5.39271 6.91021C5.27187 7.0309 5.12549 7.09125 4.95354 7.09125C4.7816 7.09125 4.63521 7.0309 4.51438 6.91021L3.41187 5.80771V6.45833C3.41187 7.90597 3.92146 9.13597 4.94062 10.1483C5.95993 11.1606 7.20035 11.6667 8.66187 11.6667C8.90549 11.6667 9.14826 11.6501 9.39021 11.6171C9.63229 11.5839 9.87083 11.5272 10.1058 11.4471C10.2832 11.3938 10.4506 11.3994 10.6081 11.464C10.7658 11.5285 10.8841 11.6383 10.9631 11.7933C11.0422 11.9568 11.0472 12.1194 10.9783 12.2813C10.9094 12.4431 10.7863 12.5507 10.609 12.6042C10.2949 12.7153 9.97389 12.7951 9.64583 12.8438C9.31792 12.8924 8.98993 12.9167 8.66187 12.9167ZM8.57854 1.25C8.33493 1.25 8.09215 1.26653 7.85021 1.29958C7.60812 1.33278 7.36958 1.38944 7.13458 1.46958C6.95722 1.52292 6.78764 1.51729 6.62583 1.45271C6.46403 1.38812 6.34354 1.27833 6.26437 1.12333C6.18535 0.968472 6.17896 0.810139 6.24521 0.648333C6.31146 0.486389 6.42896 0.37875 6.59771 0.325417C6.92035 0.214305 7.24701 0.132292 7.57771 0.079375C7.9084 0.0264583 8.24201 0 8.57854 0C10.3809 0 11.9148 0.627153 13.1802 1.88146C14.4458 3.13576 15.0785 4.66139 15.0785 6.45833V7.10896L16.181 6.00646C16.2965 5.89104 16.4415 5.83201 16.6163 5.82938C16.7908 5.82674 16.9385 5.88576 17.0594 6.00646C17.1801 6.12715 17.2404 6.27347 17.2404 6.44542C17.2404 6.6175 17.1801 6.76389 17.0594 6.88458L14.9808 8.96313C14.8301 9.11382 14.6544 9.18917 14.4535 9.18917C14.2527 9.18917 14.0769 9.11382 13.9262 8.96313L11.8477 6.88458C11.7324 6.76917 11.6734 6.62417 11.6706 6.44958C11.668 6.27486 11.727 6.12715 11.8477 6.00646C11.9685 5.88576 12.1149 5.82542 12.2869 5.82542C12.4588 5.82542 12.6052 5.88576 12.726 6.00646L13.8285 7.10896V6.45833C13.8285 5.01069 13.319 3.78069 12.2998 2.76833C11.2805 1.75611 10.0401 1.25 8.57854 1.25Z" fill="#71717A"/>
</svg>
