<svg width="15" height="16" viewBox="0 0 15 16" fill="none" xmlns="http://www.w3.org/2000/svg">
<path d="M1.50646 15.9294C1.08549 15.9294 0.729167 15.7835 0.4375 15.4919C0.145833 15.2002 0 14.8439 0 14.4229V3.26917C0 2.84819 0.145833 2.49187 0.4375 2.20021C0.729167 1.90854 1.08549 1.76271 1.50646 1.76271H2.66021V0.640833C2.66021 0.458195 2.72139 0.305694 2.84375 0.183333C2.96611 0.0611109 3.11861 0 3.30125 0C3.48403 0 3.63653 0.0611109 3.75875 0.183333C3.88111 0.305694 3.94229 0.458195 3.94229 0.640833V1.76271H10.2565V0.625C10.2565 0.447639 10.3162 0.299097 10.4358 0.179375C10.5556 0.0597914 10.7041 0 10.8815 0C11.0588 0 11.2073 0.0597914 11.3269 0.179375C11.4466 0.299097 11.5065 0.447639 11.5065 0.625V1.76271H12.6602C13.0812 1.76271 13.4375 1.90854 13.7292 2.20021C14.0208 2.49187 14.1667 2.84819 14.1667 3.26917V14.4229C14.1667 14.8439 14.0208 15.2002 13.7292 15.4919C13.4375 15.7835 13.0812 15.9294 12.6602 15.9294H1.50646ZM1.50646 14.6794H12.6602C12.7244 14.6794 12.7831 14.6526 12.8365 14.5992C12.8899 14.5458 12.9167 14.4871 12.9167 14.4229V6.6025H1.25V14.4229C1.25 14.4871 1.27674 14.5458 1.33021 14.5992C1.38354 14.6526 1.44229 14.6794 1.50646 14.6794ZM1.25 5.3525H12.9167V3.26917C12.9167 3.205 12.8899 3.14625 12.8365 3.09292C12.7831 3.03944 12.7244 3.01271 12.6602 3.01271H1.50646C1.44229 3.01271 1.38354 3.03944 1.33021 3.09292C1.27674 3.14625 1.25 3.205 1.25 3.26917V5.3525Z" fill="#71717A"/>
</svg>
