<svg width="16" height="14" viewBox="0 0 16 14" fill="none" xmlns="http://www.w3.org/2000/svg">
<path d="M7.90875 13.7996C7.73028 13.7996 7.55104 13.7676 7.37104 13.7035C7.19104 13.6394 7.03264 13.539 6.89583 13.4023L5.69875 12.3142C4.22125 10.9669 2.90208 9.64347 1.74125 8.34375C0.580417 7.04403 0 5.65167 0 4.16667C0 2.98403 0.39875 1.99389 1.19625 1.19625C1.99389 0.39875 2.98403 0 4.16667 0C4.83861 0 5.50236 0.154931 6.15792 0.464792C6.81333 0.774653 7.39958 1.27785 7.91667 1.97438C8.43375 1.27785 9.02 0.774653 9.67542 0.464792C10.331 0.154931 10.9947 0 11.6667 0C12.8493 0 13.8394 0.39875 14.6371 1.19625C15.4346 1.99389 15.8333 2.98403 15.8333 4.16667C15.8333 5.66778 15.2431 7.07563 14.0625 8.39021C12.8819 9.70479 11.5657 11.017 10.1138 12.3269L8.92937 13.4023C8.79271 13.539 8.63306 13.6394 8.45042 13.7035C8.26764 13.7676 8.08708 13.7996 7.90875 13.7996ZM7.31729 3.24042C6.86646 2.55347 6.39181 2.05 5.89333 1.73C5.395 1.41 4.81944 1.25 4.16667 1.25C3.33333 1.25 2.63889 1.52778 2.08333 2.08333C1.52778 2.63889 1.25 3.33333 1.25 4.16667C1.25 4.83542 1.46556 5.53465 1.89667 6.26437C2.32778 6.9941 2.86889 7.71951 3.52 8.44062C4.17111 9.16187 4.87653 9.86646 5.63625 10.5544C6.39583 11.2424 7.09986 11.8819 7.74833 12.4727C7.79639 12.5155 7.8525 12.5369 7.91667 12.5369C7.98083 12.5369 8.03694 12.5155 8.085 12.4727C8.73347 11.8819 9.4375 11.2424 10.1971 10.5544C10.9568 9.86646 11.6622 9.16187 12.3133 8.44062C12.9644 7.71951 13.5056 6.9941 13.9367 6.26437C14.3678 5.53465 14.5833 4.83542 14.5833 4.16667C14.5833 3.33333 14.3056 2.63889 13.75 2.08333C13.1944 1.52778 12.5 1.25 11.6667 1.25C11.0139 1.25 10.4383 1.41 9.94 1.73C9.44153 2.05 8.96687 2.55347 8.51604 3.24042C8.44549 3.34722 8.35681 3.42736 8.25 3.48083C8.1432 3.53417 8.03208 3.56083 7.91667 3.56083C7.80125 3.56083 7.69014 3.53417 7.58333 3.48083C7.47653 3.42736 7.38785 3.34722 7.31729 3.24042Z" fill="#71717A"/>
</svg>
