<svg width="16" height="16" viewBox="0 0 16 16" fill="none" xmlns="http://www.w3.org/2000/svg">
<path d="M10.755 6.92312C11.0583 6.92312 11.3155 6.81694 11.5265 6.60458C11.7374 6.39236 11.8429 6.13465 11.8429 5.83146C11.8429 5.52826 11.7368 5.27118 11.5246 5.06021C11.3124 4.8491 11.0546 4.74354 10.7512 4.74354C10.4481 4.74354 10.191 4.84972 9.98 5.06208C9.76903 5.2743 9.66354 5.53201 9.66354 5.83521C9.66354 6.1384 9.76965 6.39549 9.98188 6.60646C10.1941 6.81757 10.4518 6.92312 10.755 6.92312ZM5.08208 6.92312C5.38528 6.92312 5.64236 6.81694 5.85333 6.60458C6.06431 6.39236 6.16979 6.13465 6.16979 5.83146C6.16979 5.52826 6.06368 5.27118 5.85146 5.06021C5.63924 4.8491 5.38153 4.74354 5.07833 4.74354C4.775 4.74354 4.51785 4.84972 4.30688 5.06208C4.0959 5.2743 3.99042 5.53201 3.99042 5.83521C3.99042 6.1384 4.09653 6.39549 4.30875 6.60646C4.52097 6.81757 4.77875 6.92312 5.08208 6.92312ZM7.91812 15.8333C6.82312 15.8333 5.79389 15.6256 4.83042 15.21C3.86694 14.7944 3.02889 14.2305 2.31625 13.5181C1.60361 12.8058 1.03937 11.9681 0.623542 11.005C0.207847 10.0419 0 9.01299 0 7.91812C0 6.82312 0.207778 5.79389 0.623333 4.83042C1.03889 3.86694 1.60285 3.02889 2.31521 2.31625C3.02757 1.60361 3.86528 1.03937 4.82833 0.623542C5.79139 0.207847 6.82035 0 7.91521 0C9.01021 0 10.0394 0.207777 11.0029 0.623333C11.9664 1.03889 12.8044 1.60285 13.5171 2.31521C14.2297 3.02757 14.794 3.86528 15.2098 4.82833C15.6255 5.79139 15.8333 6.82035 15.8333 7.91521C15.8333 9.01021 15.6256 10.0394 15.21 11.0029C14.7944 11.9664 14.2305 12.8044 13.5181 13.5171C12.8058 14.2297 11.9681 14.794 11.005 15.2098C10.0419 15.6255 9.01299 15.8333 7.91812 15.8333ZM7.91667 12.2435C8.66458 12.2435 9.35451 12.0665 9.98646 11.7123C10.6184 11.3581 11.1315 10.8776 11.5258 10.2708C11.6047 10.1192 11.6022 9.96667 11.5183 9.81333C11.4346 9.66 11.3035 9.58333 11.125 9.58333H4.70833C4.52986 9.58333 4.39875 9.66 4.315 9.81333C4.23111 9.96667 4.22861 10.1192 4.3075 10.2708C4.70181 10.8776 5.21819 11.3581 5.85667 11.7123C6.495 12.0665 7.18167 12.2435 7.91667 12.2435Z" fill="white"/>
</svg>
