<svg width="16" height="16" viewBox="0 0 16 16" fill="none" xmlns="http://www.w3.org/2000/svg">
<path d="M7.92021 9.16667C7.19993 9.16667 6.52597 9.32854 5.89833 9.65229C5.27056 9.97604 4.76333 10.437 4.37667 11.0352C4.25597 11.2147 4.24181 11.3915 4.33417 11.5656C4.42653 11.7398 4.57368 11.8269 4.77563 11.8269C4.85826 11.8269 4.93313 11.8079 5.00021 11.77C5.06743 11.7321 5.12771 11.6778 5.18104 11.6073C5.50049 11.1553 5.89903 10.8012 6.37667 10.5448C6.85417 10.2884 7.3675 10.1602 7.91667 10.1602C8.46583 10.1602 8.97917 10.2884 9.45667 10.5448C9.93431 10.8012 10.3328 11.1553 10.6523 11.6073C10.6972 11.6778 10.7531 11.7321 10.8202 11.77C10.8874 11.8079 10.9623 11.8269 11.0448 11.8269C11.2467 11.8269 11.394 11.7363 11.4865 11.5552C11.5788 11.3741 11.5647 11.1922 11.444 11.0096C11.0572 10.4199 10.5499 9.96528 9.92229 9.64583C9.29465 9.32639 8.62729 9.16667 7.92021 9.16667ZM10.755 6.92312C11.0583 6.92312 11.3155 6.81694 11.5265 6.60458C11.7374 6.39236 11.8429 6.13465 11.8429 5.83146C11.8429 5.52826 11.7368 5.27118 11.5246 5.06021C11.3124 4.8491 11.0546 4.74354 10.7512 4.74354C10.4481 4.74354 10.191 4.84972 9.98 5.06208C9.76903 5.2743 9.66354 5.53201 9.66354 5.83521C9.66354 6.1384 9.76965 6.39549 9.98188 6.60646C10.1941 6.81757 10.4518 6.92312 10.755 6.92312ZM5.08208 6.92312C5.38528 6.92312 5.64236 6.81694 5.85333 6.60458C6.06431 6.39236 6.16979 6.13465 6.16979 5.83146C6.16979 5.52826 6.06368 5.27118 5.85146 5.06021C5.63924 4.8491 5.38153 4.74354 5.07833 4.74354C4.775 4.74354 4.51785 4.84972 4.30688 5.06208C4.0959 5.2743 3.99042 5.53201 3.99042 5.83521C3.99042 6.1384 4.09653 6.39549 4.30875 6.60646C4.52097 6.81757 4.77875 6.92312 5.08208 6.92312ZM7.91812 15.8333C6.82312 15.8333 5.79389 15.6256 4.83042 15.21C3.86694 14.7944 3.02889 14.2305 2.31625 13.5181C1.60361 12.8058 1.03937 11.9681 0.623542 11.005C0.207847 10.0419 0 9.01299 0 7.91812C0 6.82312 0.207778 5.79389 0.623333 4.83042C1.03889 3.86694 1.60285 3.02889 2.31521 2.31625C3.02757 1.60361 3.86528 1.03937 4.82833 0.623542C5.79139 0.207847 6.82035 0 7.91521 0C9.01021 0 10.0394 0.207777 11.0029 0.623333C11.9664 1.03889 12.8044 1.60285 13.5171 2.31521C14.2297 3.02757 14.794 3.86528 15.2098 4.82833C15.6255 5.79139 15.8333 6.82035 15.8333 7.91521C15.8333 9.01021 15.6256 10.0394 15.21 11.0029C14.7944 11.9664 14.2305 12.8044 13.5181 13.5171C12.8058 14.2297 11.9681 14.794 11.005 15.2098C10.0419 15.6255 9.01299 15.8333 7.91812 15.8333Z" fill="white"/>
</svg>
