<svg width="16" height="16" viewBox="0 0 16 16" fill="none" xmlns="http://www.w3.org/2000/svg">
<path d="M1.50646 12.7083C1.09215 12.7083 0.7375 12.5608 0.4425 12.2658C0.1475 11.9708 0 11.6162 0 11.2019V1.50646C0 1.09215 0.1475 0.7375 0.4425 0.4425C0.7375 0.1475 1.09215 0 1.50646 0H14.3269C14.7412 0 15.0958 0.1475 15.3908 0.4425C15.6858 0.7375 15.8333 1.09215 15.8333 1.50646V11.2019C15.8333 11.6162 15.6858 11.9708 15.3908 12.2658C15.0958 12.5608 14.7412 12.7083 14.3269 12.7083H9.98562L8.54 14.8798C8.46444 14.9941 8.37312 15.0799 8.26604 15.1371C8.1591 15.1942 8.04264 15.2227 7.91667 15.2227C7.79069 15.2227 7.67424 15.1942 7.56729 15.1371C7.46021 15.0799 7.36889 14.9941 7.29333 14.8798L5.84771 12.7083H1.50646ZM7.91667 13.5785L9.31417 11.4583H14.3269C14.4017 11.4583 14.4632 11.4343 14.5112 11.3863C14.5593 11.3382 14.5833 11.2767 14.5833 11.2019V1.50646C14.5833 1.4316 14.5593 1.37014 14.5112 1.32208C14.4632 1.27403 14.4017 1.25 14.3269 1.25H1.50646C1.4316 1.25 1.37014 1.27403 1.32208 1.32208C1.27403 1.37014 1.25 1.4316 1.25 1.50646V11.2019C1.25 11.2767 1.27403 11.3382 1.32208 11.3863C1.37014 11.4343 1.4316 11.4583 1.50646 11.4583H6.51917L7.91667 13.5785Z" fill="#71717A"/>
</svg>
