<svg width="17" height="12" viewBox="0 0 17 12" fill="none" xmlns="http://www.w3.org/2000/svg">
<path d="M8.49854 9.23083C9.44285 9.23083 10.2449 8.90035 10.9046 8.23938C11.5643 7.5784 11.8942 6.77576 11.8942 5.83146C11.8942 4.88715 11.5637 4.08514 10.9027 3.42542C10.2417 2.76569 9.4391 2.43583 8.49479 2.43583C7.55049 2.43583 6.74847 2.76632 6.08875 3.42729C5.42903 4.08826 5.09917 4.8909 5.09917 5.83521C5.09917 6.77951 5.42965 7.58153 6.09063 8.24125C6.7516 8.90097 7.55424 9.23083 8.49854 9.23083ZM8.49667 8.08333C7.87167 8.08333 7.34042 7.86458 6.90292 7.42708C6.46542 6.98958 6.24667 6.45833 6.24667 5.83333C6.24667 5.20833 6.46542 4.67708 6.90292 4.23958C7.34042 3.80208 7.87167 3.58333 8.49667 3.58333C9.12167 3.58333 9.65292 3.80208 10.0904 4.23958C10.5279 4.67708 10.7467 5.20833 10.7467 5.83333C10.7467 6.45833 10.5279 6.98958 10.0904 7.42708C9.65292 7.86458 9.12167 8.08333 8.49667 8.08333ZM8.49667 11.6667C6.74236 11.6667 5.13792 11.1987 3.68333 10.2627C2.22875 9.32687 1.06771 8.09563 0.200208 6.56896C0.130764 6.44924 0.0799999 6.32861 0.0479166 6.20708C0.0159721 6.08556 0 5.96083 0 5.83292C0 5.705 0.0159721 5.58042 0.0479166 5.45917C0.0799999 5.33792 0.130764 5.21743 0.200208 5.09771C1.06771 3.57104 2.22875 2.33979 3.68333 1.40396C5.13792 0.467986 6.74236 0 8.49667 0C10.251 0 11.8554 0.467986 13.31 1.40396C14.7646 2.33979 15.9256 3.57104 16.7931 5.09771C16.8626 5.21743 16.9133 5.33806 16.9454 5.45958C16.9774 5.58111 16.9933 5.70583 16.9933 5.83375C16.9933 5.96167 16.9774 6.08625 16.9454 6.2075C16.9133 6.32875 16.8626 6.44924 16.7931 6.56896C15.9256 8.09563 14.7646 9.32687 13.31 10.2627C11.8554 11.1987 10.251 11.6667 8.49667 11.6667ZM8.49667 10.4167C10.0661 10.4167 11.5071 10.0035 12.8196 9.17708C14.1321 8.35069 15.1356 7.23611 15.83 5.83333C15.1356 4.43056 14.1321 3.31597 12.8196 2.48958C11.5071 1.66319 10.0661 1.25 8.49667 1.25C6.92722 1.25 5.48625 1.66319 4.17375 2.48958C2.86125 3.31597 1.85778 4.43056 1.16333 5.83333C1.85778 7.23611 2.86125 8.35069 4.17375 9.17708C5.48625 10.0035 6.92722 10.4167 8.49667 10.4167Z" fill="#71717A"/>
</svg>
