<svg width="24" height="24" viewBox="0 0 24 24" fill="none" xmlns="http://www.w3.org/2000/svg">
<mask id="mask0_3322_1107" style="mask-type:alpha" maskUnits="userSpaceOnUse" x="0" y="0" width="24" height="24">
<rect width="24" height="24" fill="#D9D9D9"/>
</mask>
<g mask="url(#mask0_3322_1107)">
<path d="M12.0025 21.5001C10.6885 21.5001 9.4534 21.2507 8.29723 20.7521C7.14107 20.2534 6.1354 19.5766 5.28023 18.7218C4.42507 17.867 3.74798 16.8617 3.24898 15.7061C2.75015 14.5504 2.50073 13.3156 2.50073 12.0018C2.50073 10.6878 2.75007 9.45273 3.24873 8.29656C3.7474 7.14039 4.42415 6.13473 5.27898 5.27956C6.13382 4.42439 7.13907 3.74731 8.29473 3.24831C9.4504 2.74948 10.6851 2.50006 11.999 2.50006C13.313 2.50006 14.5481 2.74939 15.7042 3.24806C16.8604 3.74673 17.8661 4.42348 18.7212 5.27831C19.5764 6.13314 20.2535 7.13839 20.7525 8.29406C21.2513 9.44973 21.5007 10.6845 21.5007 11.9983C21.5007 13.3123 21.2514 14.5474 20.7527 15.7036C20.2541 16.8597 19.5773 17.8654 18.7225 18.7206C17.8676 19.5757 16.8624 20.2528 15.7067 20.7518C14.5511 21.2506 13.3163 21.5001 12.0025 21.5001ZM12.0007 20.0001C12.9389 20.0001 13.8424 19.8414 14.7112 19.5241C15.5799 19.2067 16.3738 18.7475 17.093 18.1463L5.85448 6.90781C5.25965 7.62698 4.80198 8.4209 4.48148 9.28956C4.16098 10.1584 4.00073 11.0619 4.00073 12.0001C4.00073 14.2334 4.77573 16.1251 6.32573 17.6751C7.87573 19.2251 9.7674 20.0001 12.0007 20.0001ZM18.147 17.0923C18.7481 16.3731 19.2074 15.5792 19.5247 14.7106C19.8421 13.8417 20.0007 12.9382 20.0007 12.0001C20.0007 9.76673 19.2257 7.87506 17.6757 6.32506C16.1257 4.77506 14.2341 4.00006 12.0007 4.00006C11.0602 4.00006 10.1546 4.15714 9.28373 4.47131C8.41307 4.78531 7.62132 5.24615 6.90848 5.85381L18.147 17.0923Z" fill="#EF4444"/>
</g>
</svg>
