<svg width="19" height="15" viewBox="0 0 19 15" fill="none" xmlns="http://www.w3.org/2000/svg">
<path d="M1.80775 15C1.31058 15 0.885 14.823 0.531 14.469C0.177 14.115 0 13.6894 0 13.1923V1.80775C0 1.31058 0.177 0.885 0.531 0.531C0.885 0.177 1.31058 0 1.80775 0H12.4135C12.6997 0 12.9708 0.0631671 13.227 0.1895C13.483 0.315834 13.6938 0.490499 13.8595 0.713499L18.177 6.40575C18.4243 6.73008 18.548 7.09483 18.548 7.5C18.548 7.90517 18.4243 8.26992 18.177 8.59425L13.8595 14.2865C13.6938 14.5095 13.483 14.6842 13.227 14.8105C12.9708 14.9368 12.6997 15 12.4135 15H1.80775ZM1.80775 13.5H12.4135C12.4648 13.5 12.5113 13.4904 12.553 13.4712C12.5947 13.4519 12.6315 13.423 12.6635 13.3845L16.9807 7.69225C17.0256 7.63458 17.048 7.5705 17.048 7.5C17.048 7.4295 17.0256 7.36542 16.9807 7.30775L12.6635 1.6155C12.6315 1.577 12.5947 1.54808 12.553 1.52875C12.5113 1.50958 12.4648 1.5 12.4135 1.5H1.80775C1.71792 1.5 1.64417 1.52883 1.5865 1.5865C1.52883 1.64417 1.5 1.71792 1.5 1.80775V13.1923C1.5 13.2821 1.52883 13.3558 1.5865 13.4135C1.64417 13.4712 1.71792 13.5 1.80775 13.5Z" fill="#71717A"/>
</svg>
