<svg width="24" height="24" viewBox="0 0 24 24" fill="none" xmlns="http://www.w3.org/2000/svg">
<mask id="mask0_3322_1097" style="mask-type:alpha" maskUnits="userSpaceOnUse" x="0" y="0" width="24" height="24">
<rect width="24" height="24" fill="#D9D9D9"/>
</mask>
<g mask="url(#mask0_3322_1097)">
<path d="M15.4067 10.8078C15.7707 10.8078 16.0793 10.6804 16.3325 10.4256C16.5856 10.1709 16.7122 9.86164 16.7122 9.49781C16.7122 9.13398 16.5849 8.82548 16.3302 8.57231C16.0756 8.31898 15.7662 8.19231 15.4022 8.19231C15.0384 8.19231 14.7299 8.31973 14.4767 8.57456C14.2236 8.82923 14.097 9.13848 14.097 9.50231C14.097 9.86615 14.2243 10.1746 14.479 10.4278C14.7336 10.6811 15.0429 10.8078 15.4067 10.8078ZM8.59923 10.8078C8.96307 10.8078 9.27157 10.6804 9.52473 10.4256C9.7779 10.1709 9.90448 9.86164 9.90448 9.49781C9.90448 9.13398 9.77715 8.82548 9.52248 8.57231C9.26782 8.31898 8.95857 8.19231 8.59473 8.19231C8.23073 8.19231 7.92215 8.31973 7.66898 8.57456C7.41582 8.82923 7.28923 9.13848 7.28923 9.50231C7.28923 9.86615 7.41657 10.1746 7.67123 10.4278C7.9259 10.6811 8.23523 10.8078 8.59923 10.8078ZM12.0025 21.5001C10.6885 21.5001 9.4534 21.2507 8.29723 20.7521C7.14107 20.2534 6.1354 19.5766 5.28023 18.7218C4.42507 17.867 3.74798 16.8617 3.24898 15.7061C2.75015 14.5504 2.50073 13.3156 2.50073 12.0018C2.50073 10.6878 2.75007 9.45273 3.24873 8.29656C3.7474 7.14039 4.42415 6.13473 5.27898 5.27956C6.13382 4.42439 7.13907 3.74731 8.29473 3.24831C9.4504 2.74948 10.6851 2.50006 11.999 2.50006C13.313 2.50006 14.5481 2.74939 15.7042 3.24806C16.8604 3.74673 17.8661 4.42348 18.7212 5.27831C19.5764 6.13314 20.2535 7.13839 20.7525 8.29406C21.2513 9.44973 21.5007 10.6845 21.5007 11.9983C21.5007 13.3123 21.2514 14.5474 20.7527 15.7036C20.2541 16.8597 19.5773 17.8654 18.7225 18.7206C17.8676 19.5757 16.8624 20.2528 15.7067 20.7518C14.5511 21.2506 13.3163 21.5001 12.0025 21.5001ZM12.0007 20.0001C14.2341 20.0001 16.1257 19.2251 17.6757 17.6751C19.2257 16.1251 20.0007 14.2334 20.0007 12.0001C20.0007 9.76673 19.2257 7.87506 17.6757 6.32506C16.1257 4.77506 14.2341 4.00006 12.0007 4.00006C9.7674 4.00006 7.87573 4.77506 6.32573 6.32506C4.77573 7.87506 4.00073 9.76673 4.00073 12.0001C4.00073 14.2334 4.77573 16.1251 6.32573 17.6751C7.87573 19.2251 9.7674 20.0001 12.0007 20.0001ZM12.0007 17.1923C12.8982 17.1923 13.7261 16.9798 14.4845 16.5548C15.2428 16.1298 15.8586 15.5532 16.3317 14.8251C16.4264 14.6431 16.4234 14.4601 16.3227 14.2761C16.2222 14.0921 16.0649 14.0001 15.8507 14.0001H8.15073C7.93657 14.0001 7.77923 14.0921 7.67873 14.2761C7.57807 14.4601 7.57507 14.6431 7.66973 14.8251C8.1429 15.5532 8.76257 16.1298 9.52873 16.5548C10.2947 16.9798 11.1187 17.1923 12.0007 17.1923Z" fill="#71717A"/>
</g>
</svg>
