<svg width="24" height="24" viewBox="0 0 24 24" fill="none" xmlns="http://www.w3.org/2000/svg">
<mask id="mask0_3322_1087" style="mask-type:alpha" maskUnits="userSpaceOnUse" x="0" y="0" width="24" height="24">
<rect width="24" height="24" fill="#D9D9D9"/>
</mask>
<g mask="url(#mask0_3322_1087)">
<path d="M5.30702 20.4999C4.80185 20.4999 4.37427 20.3249 4.02427 19.9749C3.67427 19.6249 3.49927 19.1974 3.49927 18.6922V5.30769C3.49927 4.80252 3.67427 4.37494 4.02427 4.02494C4.37427 3.67494 4.80185 3.49994 5.30702 3.49994H10.8645C11.0774 3.49994 11.2556 3.57177 11.3993 3.71544C11.5428 3.85894 11.6145 4.03711 11.6145 4.24994C11.6145 4.46277 11.5428 4.64094 11.3993 4.78444C11.2556 4.92811 11.0774 4.99994 10.8645 4.99994H5.30702C5.23002 4.99994 5.15952 5.03202 5.09552 5.09619C5.03135 5.16019 4.99927 5.23069 4.99927 5.30769V18.6922C4.99927 18.7692 5.03135 18.8397 5.09552 18.9037C5.15952 18.9679 5.23002 18.9999 5.30702 18.9999H18.6915C18.7685 18.9999 18.839 18.9679 18.903 18.9037C18.9672 18.8397 18.9993 18.7692 18.9993 18.6922V13.1347C18.9993 12.9219 19.0711 12.7436 19.2148 12.5999C19.3583 12.4564 19.5364 12.3847 19.7493 12.3847C19.9621 12.3847 20.1403 12.4564 20.2838 12.5999C20.4274 12.7436 20.4993 12.9219 20.4993 13.1347V18.6922C20.4993 19.1974 20.3243 19.6249 19.9743 19.9749C19.6243 20.3249 19.1967 20.4999 18.6915 20.4999H5.30702ZM18.9993 6.05369L10.2455 14.8077C10.107 14.946 9.93293 15.0169 9.72327 15.0202C9.51377 15.0234 9.33652 14.9525 9.19152 14.8077C9.04668 14.6627 8.97427 14.487 8.97427 14.2807C8.97427 14.0744 9.04668 13.8987 9.19152 13.7537L17.9455 4.99994H14.7493C14.5364 4.99994 14.3583 4.92811 14.2148 4.78444C14.0711 4.64094 13.9993 4.46277 13.9993 4.24994C13.9993 4.03711 14.0711 3.85894 14.2148 3.71544C14.3583 3.57177 14.5364 3.49994 14.7493 3.49994H19.5953C19.8531 3.49994 20.0682 3.58619 20.2405 3.75869C20.413 3.93102 20.4993 4.1461 20.4993 4.40394V9.24994C20.4993 9.46277 20.4274 9.64094 20.2838 9.78444C20.1403 9.92811 19.9621 9.99994 19.7493 9.99994C19.5364 9.99994 19.3583 9.92811 19.2148 9.78444C19.0711 9.64094 18.9993 9.46277 18.9993 9.24994V6.05369Z" fill="#71717A"/>
</g>
</svg>
